<svg viewBox="0 0 48 48" xmlns="http://www.w3.org/2000/svg">
    <path d="M41.87 10.75a11.6 11.6 0 0 1 1.67 6.36q0 5.1-2.49 8.29-1.12 1.33-3.28 2.57a25 25 0 0 0-4.02 2.86 11 11 0 0 0-2.96 4.36q-.22.52-.88 3.7-.67 3.17-1.4 4.03-2.88 3.1-6.31 3.1a8.4 8.4 0 0 1-5.76-2.45q-.6-.64-.94-1.6-.35-.94-.48-1.56-.12-.62-.34-2.09-.2-1.92-1.1-4.42-.87-2.5-2-3.35a20 20 0 0 1-6.05-6.49q-.34-.6-.56-1.22-.21-.63-.3-1.44l-.13-1.27q-.04-.45-.06-1.52l-.02-1.42v-.47q0-1.6.04-2.45.05-.86.32-2.15.28-1.29.88-2.23a16 16 0 0 1 4.6-4.85q4.04-2.8 9.8-3l.62-.03.79-.02q6.06 0 7.43.34 3.83.81 7.26 2.96a19 19 0 0 1 5.67 5.46Z" fill="none" stroke="#4B3D42" stroke-width="2"/>
    <path d="M41.87 10.75a11.6 11.6 0 0 1 1.67 6.36q0 5.1-2.49 8.29-1.12 1.33-3.28 2.57a25 25 0 0 0-4.02 2.86 11 11 0 0 0-2.96 4.36q-.22.52-.88 3.7-.67 3.17-1.4 4.03-2.88 3.1-6.31 3.1a8.4 8.4 0 0 1-5.76-2.45q-.6-.64-.94-1.6-.35-.94-.48-1.56-.12-.62-.34-2.09-.2-1.92-1.1-4.42-.87-2.5-2-3.35a20 20 0 0 1-6.05-6.49q-.34-.6-.56-1.22-.21-.63-.3-1.44l-.13-1.27q-.04-.45-.06-1.52l-.02-1.42v-.47q0-1.6.04-2.45.05-.86.32-2.15.28-1.29.88-2.23a16 16 0 0 1 4.6-4.85q4.04-2.8 9.8-3l.62-.03.79-.02q6.06 0 7.43.34 3.83.81 7.26 2.96a19 19 0 0 1 5.67 5.46" fill="#D4D4D4"/>
    <path d="M27.52 31.54a6 6 0 0 1-.04-.9l.02-.8.02-.8q0-.37-.08-.9-1.12 0-1.6.05-.12 2.95-.12 3.39l-.52.02-.51.02q0-.65.06-1.82.07-1.18.07-1.83l-.43-.02-.48-.02q-.46 0-.73.13l-.17.13.02 1.84.03 1.85-.46.04-.4.05a1 1 0 0 1-.35-.09q0-.64.13-1.95.13-1.32.13-1.96a44 44 0 0 0-2.02.05l.02.62.02.7q0 1.6-.38 2.54h-.9q0-.43.17-3.86l-.73-.03-.86-.02a6 6 0 0 0-.06.95 17 17 0 0 1-.11 1.5q-.1.73-.26 1.16a7 7 0 0 1-2.4-1.42q-.78-.77-.78-2.23 0-.94.47-1.55.82-.81 3.87-.81a39 39 0 0 1 2.06.04l.95.09a120 120 0 0 1 5.67.38q3.26.43 3.43 2.2v.25q0 1.04-.77 2.04-.78 1-1.68 1.01l-.15-.02zm-5.36-15.08q.34-.43.72-.43.86 0 1.6 1.87.72 1.88.73 3.33 0 .34-.1.6-.2.9-.64.9-.26 0-.99-.45-.72-.45-1.2-.45-.37 0-1.14.43-.74.43-1.1.43-.42 0-.72-.52a1 1 0 0 1-.13-.51q0-.69.56-1.68 1.16-2.87 2.4-3.52m10.79 1.16q-1.5 1.5-2.75 1.5-1.29 0-2.58-1.5-1.08-1.36-1.07-2.19l-.03-.17-.02-.17q0-.4.13-.71.14-.32.3-.54.18-.21.52-.38t.56-.26.68-.17l.7-.13q.2-.05.72-.09l.64-.04q1.59 0 2.54.66a2 2 0 0 1 .94 1.7q0 1.2-1.28 2.5m-21.18-3.49q0-1.11.77-1.78a2.7 2.7 0 0 1 1.85-.66q.68 0 1.25.25l.38.18q.3.12 1.1.36.79.24 1.37.54t.84.81q.47.52.47 1.38 0 1.33-1.22 2.53-1.23 1.2-2.6 1.2-.21 0-.56-.08a5.4 5.4 0 0 1-2.53-1.9 4.6 4.6 0 0 1-1.12-2.83" fill="#4B3D42"/>
</svg>